G04*
G04 #@! TF.GenerationSoftware,Altium Limited,Altium Designer,20.1.8 (145)*
G04*
G04 Layer_Color=16711935*
%FSLAX25Y25*%
%MOIN*%
G70*
G04*
G04 #@! TF.SameCoordinates,3D76E3EC-FEB2-46C7-AB75-6B0F0163D353*
G04*
G04*
G04 #@! TF.FilePolarity,Positive*
G04*
G01*
G75*
%ADD11C,0.00787*%
G36*
X168171Y370072D02*
X168200D01*
X168233Y370069D01*
X168272Y370062D01*
X168315Y370056D01*
X168400Y370039D01*
X168492Y370013D01*
X168577Y369977D01*
X168620Y369957D01*
X168656Y369931D01*
X168659Y369928D01*
X168663Y369925D01*
X168673Y369915D01*
X168686Y369905D01*
X168702Y369888D01*
X168718Y369869D01*
X168735Y369846D01*
X168754Y369820D01*
X168774Y369790D01*
X168797Y369757D01*
X168817Y369721D01*
X168833Y369682D01*
X168853Y369639D01*
X168869Y369593D01*
X168882Y369544D01*
X168892Y369492D01*
X168587Y369443D01*
Y369446D01*
Y369449D01*
X168584Y369459D01*
X168581Y369472D01*
X168574Y369505D01*
X168561Y369547D01*
X168541Y369593D01*
X168518Y369639D01*
X168485Y369685D01*
X168446Y369724D01*
X168440Y369728D01*
X168423Y369738D01*
X168397Y369754D01*
X168361Y369770D01*
X168312Y369790D01*
X168256Y369803D01*
X168190Y369816D01*
X168115Y369820D01*
X168079D01*
X168043Y369816D01*
X167993Y369810D01*
X167944Y369800D01*
X167892Y369784D01*
X167839Y369764D01*
X167797Y369734D01*
X167793Y369731D01*
X167780Y369718D01*
X167764Y369702D01*
X167744Y369675D01*
X167725Y369646D01*
X167708Y369613D01*
X167695Y369574D01*
X167692Y369531D01*
Y369528D01*
Y369515D01*
X167695Y369495D01*
X167702Y369472D01*
X167715Y369446D01*
X167731Y369420D01*
X167754Y369393D01*
X167784Y369367D01*
X167787Y369364D01*
X167797Y369360D01*
X167816Y369351D01*
X167849Y369341D01*
X167869Y369331D01*
X167889Y369324D01*
X167915Y369318D01*
X167944Y369308D01*
X167977Y369298D01*
X168017Y369288D01*
X168056Y369275D01*
X168102Y369265D01*
X168105D01*
X168118Y369262D01*
X168135Y369255D01*
X168157Y369249D01*
X168184Y369242D01*
X168217Y369233D01*
X168289Y369213D01*
X168367Y369190D01*
X168446Y369164D01*
X168482Y369150D01*
X168515Y369137D01*
X168548Y369128D01*
X168574Y369114D01*
X168581Y369111D01*
X168597Y369101D01*
X168620Y369088D01*
X168649Y369069D01*
X168679Y369046D01*
X168715Y369016D01*
X168745Y368983D01*
X168774Y368944D01*
X168777Y368937D01*
X168784Y368924D01*
X168794Y368901D01*
X168807Y368872D01*
X168820Y368836D01*
X168830Y368793D01*
X168836Y368747D01*
X168840Y368698D01*
Y368691D01*
Y368678D01*
X168836Y368655D01*
X168833Y368622D01*
X168827Y368590D01*
X168817Y368550D01*
X168804Y368511D01*
X168784Y368472D01*
X168781Y368468D01*
X168774Y368455D01*
X168761Y368436D01*
X168745Y368409D01*
X168722Y368383D01*
X168695Y368354D01*
X168666Y368324D01*
X168633Y368298D01*
X168630Y368295D01*
X168620Y368288D01*
X168604Y368278D01*
X168581Y368268D01*
X168554Y368252D01*
X168518Y368239D01*
X168479Y368222D01*
X168436Y368209D01*
X168430Y368206D01*
X168413Y368203D01*
X168390Y368196D01*
X168354Y368190D01*
X168315Y368183D01*
X168269Y368176D01*
X168220Y368170D01*
X168131D01*
X168112Y368173D01*
X168092D01*
X168039Y368176D01*
X167984Y368186D01*
X167918Y368196D01*
X167856Y368212D01*
X167793Y368232D01*
X167790D01*
X167787Y368235D01*
X167767Y368242D01*
X167738Y368258D01*
X167702Y368278D01*
X167662Y368301D01*
X167623Y368331D01*
X167584Y368363D01*
X167551Y368403D01*
X167547Y368406D01*
X167538Y368422D01*
X167525Y368445D01*
X167508Y368478D01*
X167488Y368517D01*
X167472Y368563D01*
X167456Y368619D01*
X167443Y368682D01*
X167744Y368724D01*
Y368718D01*
X167751Y368701D01*
X167757Y368675D01*
X167767Y368645D01*
X167784Y368609D01*
X167807Y368573D01*
X167833Y368541D01*
X167866Y368508D01*
X167869Y368504D01*
X167885Y368495D01*
X167905Y368481D01*
X167938Y368465D01*
X167977Y368452D01*
X168026Y368439D01*
X168082Y368429D01*
X168148Y368426D01*
X168184D01*
X168220Y368429D01*
X168266Y368436D01*
X168315Y368442D01*
X168367Y368455D01*
X168413Y368475D01*
X168453Y368498D01*
X168456Y368501D01*
X168466Y368511D01*
X168482Y368524D01*
X168495Y368544D01*
X168512Y368567D01*
X168528Y368596D01*
X168538Y368626D01*
X168541Y368662D01*
Y368665D01*
Y368672D01*
X168538Y368682D01*
Y368698D01*
X168525Y368731D01*
X168518Y368750D01*
X168505Y368770D01*
X168502Y368773D01*
X168499Y368777D01*
X168489Y368787D01*
X168476Y368800D01*
X168459Y368813D01*
X168440Y368826D01*
X168413Y368839D01*
X168387Y368852D01*
X168384D01*
X168377Y368855D01*
X168361Y368862D01*
X168335Y368868D01*
X168299Y368878D01*
X168276Y368885D01*
X168249Y368891D01*
X168220Y368901D01*
X168187Y368908D01*
X168151Y368921D01*
X168112Y368931D01*
X168108D01*
X168098Y368934D01*
X168079Y368937D01*
X168059Y368944D01*
X168033Y368954D01*
X168000Y368960D01*
X167931Y368980D01*
X167856Y369003D01*
X167780Y369026D01*
X167711Y369049D01*
X167682Y369062D01*
X167656Y369072D01*
X167649Y369075D01*
X167633Y369082D01*
X167610Y369095D01*
X167580Y369114D01*
X167547Y369137D01*
X167515Y369164D01*
X167479Y369197D01*
X167449Y369236D01*
X167446Y369239D01*
X167436Y369255D01*
X167426Y369279D01*
X167410Y369308D01*
X167397Y369347D01*
X167387Y369390D01*
X167377Y369443D01*
X167374Y369498D01*
Y369501D01*
Y369505D01*
Y369524D01*
X167377Y369554D01*
X167383Y369593D01*
X167397Y369639D01*
X167413Y369689D01*
X167436Y369741D01*
X167465Y369793D01*
X167469Y369800D01*
X167482Y369816D01*
X167505Y369839D01*
X167531Y369869D01*
X167570Y369905D01*
X167616Y369938D01*
X167669Y369974D01*
X167728Y370003D01*
X167731D01*
X167734Y370007D01*
X167744Y370010D01*
X167757Y370013D01*
X167793Y370026D01*
X167839Y370039D01*
X167895Y370053D01*
X167961Y370066D01*
X168033Y370072D01*
X168112Y370075D01*
X168144D01*
X168171Y370072D01*
D02*
G37*
G36*
X162149Y370075D02*
X162178D01*
X162214Y370072D01*
X162250Y370069D01*
X162293Y370066D01*
X162381Y370056D01*
X162480Y370036D01*
X162575Y370013D01*
X162667Y369980D01*
X162670D01*
X162677Y369977D01*
X162690Y369970D01*
X162706Y369961D01*
X162723Y369951D01*
X162745Y369938D01*
X162798Y369905D01*
X162857Y369862D01*
X162916Y369810D01*
X162975Y369747D01*
X163028Y369679D01*
Y369675D01*
X163034Y369669D01*
X163041Y369659D01*
X163047Y369642D01*
X163057Y369623D01*
X163070Y369603D01*
X163080Y369577D01*
X163093Y369547D01*
X163119Y369479D01*
X163142Y369403D01*
X163159Y369315D01*
X163165Y369223D01*
X162850Y369197D01*
Y369200D01*
Y369206D01*
X162847Y369216D01*
Y369229D01*
X162841Y369262D01*
X162831Y369308D01*
X162818Y369357D01*
X162798Y369410D01*
X162775Y369462D01*
X162749Y369511D01*
X162745Y369518D01*
X162732Y369531D01*
X162713Y369554D01*
X162687Y369580D01*
X162650Y369613D01*
X162608Y369646D01*
X162555Y369679D01*
X162496Y369708D01*
X162493D01*
X162490Y369711D01*
X162480Y369715D01*
X162467Y369718D01*
X162450Y369724D01*
X162431Y369731D01*
X162381Y369744D01*
X162326Y369757D01*
X162260Y369770D01*
X162188Y369777D01*
X162109Y369780D01*
X162076D01*
X162040Y369777D01*
X161994Y369774D01*
X161945Y369767D01*
X161886Y369757D01*
X161830Y369744D01*
X161775Y369724D01*
X161771D01*
X161768Y369721D01*
X161752Y369715D01*
X161725Y369702D01*
X161693Y369685D01*
X161657Y369662D01*
X161620Y369636D01*
X161584Y369606D01*
X161555Y369570D01*
X161552Y369567D01*
X161545Y369554D01*
X161532Y369531D01*
X161519Y369505D01*
X161506Y369472D01*
X161493Y369436D01*
X161486Y369396D01*
X161483Y369354D01*
Y369347D01*
Y369334D01*
X161486Y369311D01*
X161493Y369285D01*
X161499Y369252D01*
X161512Y369216D01*
X161532Y369180D01*
X161555Y369147D01*
X161558Y369144D01*
X161568Y369131D01*
X161584Y369114D01*
X161607Y369095D01*
X161640Y369072D01*
X161679Y369049D01*
X161725Y369023D01*
X161781Y369000D01*
X161788Y368996D01*
X161801Y368993D01*
X161814Y368987D01*
X161830Y368983D01*
X161850Y368977D01*
X161876Y368970D01*
X161903Y368960D01*
X161935Y368954D01*
X161971Y368944D01*
X162014Y368931D01*
X162060Y368921D01*
X162112Y368908D01*
X162168Y368895D01*
X162231Y368878D01*
X162234D01*
X162247Y368875D01*
X162263Y368868D01*
X162286Y368865D01*
X162316Y368855D01*
X162345Y368849D01*
X162421Y368826D01*
X162499Y368803D01*
X162582Y368773D01*
X162654Y368747D01*
X162687Y368731D01*
X162716Y368718D01*
X162719D01*
X162723Y368714D01*
X162732Y368708D01*
X162745Y368701D01*
X162778Y368682D01*
X162818Y368652D01*
X162860Y368619D01*
X162906Y368580D01*
X162949Y368534D01*
X162985Y368485D01*
Y368481D01*
X162988Y368478D01*
X162998Y368458D01*
X163011Y368432D01*
X163028Y368393D01*
X163044Y368347D01*
X163057Y368291D01*
X163067Y368232D01*
X163070Y368170D01*
Y368166D01*
Y368160D01*
Y368150D01*
X163067Y368137D01*
X163064Y368101D01*
X163057Y368052D01*
X163044Y367996D01*
X163024Y367937D01*
X162998Y367875D01*
X162962Y367812D01*
Y367809D01*
X162955Y367806D01*
X162942Y367786D01*
X162916Y367753D01*
X162883Y367717D01*
X162837Y367678D01*
X162785Y367635D01*
X162719Y367596D01*
X162647Y367560D01*
X162644D01*
X162637Y367556D01*
X162627Y367550D01*
X162611Y367547D01*
X162591Y367540D01*
X162568Y367530D01*
X162542Y367524D01*
X162513Y367514D01*
X162444Y367501D01*
X162365Y367484D01*
X162276Y367474D01*
X162185Y367471D01*
X162139D01*
X162112Y367474D01*
X162086D01*
X162053Y367478D01*
X162017Y367481D01*
X161942Y367494D01*
X161860Y367511D01*
X161775Y367533D01*
X161693Y367563D01*
X161689D01*
X161683Y367566D01*
X161673Y367573D01*
X161657Y367579D01*
X161617Y367602D01*
X161571Y367632D01*
X161515Y367668D01*
X161463Y367714D01*
X161407Y367770D01*
X161361Y367832D01*
Y367835D01*
X161355Y367839D01*
X161352Y367848D01*
X161342Y367862D01*
X161335Y367878D01*
X161325Y367898D01*
X161302Y367947D01*
X161279Y368006D01*
X161260Y368071D01*
X161243Y368147D01*
X161237Y368226D01*
X161558Y368249D01*
Y368245D01*
Y368239D01*
X161561Y368226D01*
X161565Y368209D01*
X161568Y368190D01*
X161575Y368166D01*
X161591Y368114D01*
X161614Y368058D01*
X161643Y367999D01*
X161683Y367940D01*
X161735Y367891D01*
X161742Y367884D01*
X161752Y367881D01*
X161761Y367871D01*
X161778Y367862D01*
X161798Y367852D01*
X161821Y367842D01*
X161844Y367829D01*
X161873Y367819D01*
X161906Y367809D01*
X161942Y367799D01*
X161981Y367789D01*
X162024Y367779D01*
X162070Y367776D01*
X162119Y367770D01*
X162221D01*
X162247Y367773D01*
X162273Y367776D01*
X162339Y367783D01*
X162411Y367796D01*
X162483Y367816D01*
X162552Y367845D01*
X162585Y367862D01*
X162611Y367881D01*
X162618Y367888D01*
X162634Y367901D01*
X162654Y367924D01*
X162680Y367957D01*
X162706Y367996D01*
X162726Y368042D01*
X162742Y368094D01*
X162749Y368150D01*
Y368157D01*
Y368173D01*
X162742Y368196D01*
X162736Y368229D01*
X162726Y368265D01*
X162709Y368301D01*
X162687Y368337D01*
X162654Y368373D01*
X162647Y368376D01*
X162641Y368383D01*
X162631Y368386D01*
X162618Y368396D01*
X162601Y368406D01*
X162578Y368416D01*
X162555Y368426D01*
X162522Y368439D01*
X162486Y368455D01*
X162447Y368468D01*
X162401Y368485D01*
X162349Y368501D01*
X162290Y368517D01*
X162224Y368534D01*
X162152Y368550D01*
X162149D01*
X162135Y368554D01*
X162112Y368560D01*
X162086Y368567D01*
X162053Y368573D01*
X162014Y368583D01*
X161975Y368593D01*
X161929Y368606D01*
X161837Y368629D01*
X161745Y368655D01*
X161703Y368672D01*
X161660Y368685D01*
X161624Y368698D01*
X161594Y368711D01*
X161591D01*
X161584Y368714D01*
X161575Y368721D01*
X161558Y368731D01*
X161519Y368750D01*
X161470Y368780D01*
X161417Y368819D01*
X161365Y368862D01*
X161312Y368914D01*
X161269Y368970D01*
Y368973D01*
X161266Y368977D01*
X161260Y368987D01*
X161253Y368996D01*
X161237Y369029D01*
X161214Y369072D01*
X161194Y369124D01*
X161178Y369187D01*
X161165Y369252D01*
X161161Y369328D01*
Y369331D01*
Y369338D01*
Y369347D01*
X161165Y369360D01*
Y369380D01*
X161168Y369400D01*
X161174Y369449D01*
X161191Y369508D01*
X161211Y369570D01*
X161240Y369639D01*
X161279Y369705D01*
Y369708D01*
X161286Y369711D01*
X161293Y369721D01*
X161299Y369734D01*
X161329Y369767D01*
X161365Y369807D01*
X161411Y369849D01*
X161466Y369895D01*
X161535Y369941D01*
X161611Y369980D01*
X161614D01*
X161620Y369984D01*
X161634Y369990D01*
X161647Y369997D01*
X161670Y370003D01*
X161693Y370010D01*
X161719Y370020D01*
X161752Y370030D01*
X161821Y370046D01*
X161903Y370062D01*
X161994Y370075D01*
X162093Y370079D01*
X162126D01*
X162149Y370075D01*
D02*
G37*
G36*
X173228Y367514D02*
X172054D01*
X172025Y367517D01*
X171995D01*
X171959Y367520D01*
X171920Y367524D01*
X171838Y367530D01*
X171752Y367543D01*
X171670Y367560D01*
X171631Y367570D01*
X171598Y367583D01*
X171595D01*
X171592Y367586D01*
X171582Y367589D01*
X171569Y367596D01*
X171536Y367612D01*
X171497Y367638D01*
X171451Y367671D01*
X171405Y367714D01*
X171359Y367766D01*
X171316Y367825D01*
Y367829D01*
X171313Y367832D01*
X171306Y367842D01*
X171300Y367855D01*
X171283Y367891D01*
X171264Y367937D01*
X171244Y367993D01*
X171228Y368058D01*
X171214Y368130D01*
X171211Y368206D01*
Y368209D01*
Y368219D01*
Y368232D01*
X171214Y368252D01*
X171218Y368275D01*
X171221Y368301D01*
X171234Y368363D01*
X171254Y368436D01*
X171283Y368511D01*
X171303Y368547D01*
X171326Y368586D01*
X171355Y368622D01*
X171385Y368658D01*
X171388Y368662D01*
X171392Y368665D01*
X171405Y368675D01*
X171418Y368688D01*
X171438Y368701D01*
X171460Y368718D01*
X171487Y368737D01*
X171516Y368757D01*
X171552Y368777D01*
X171592Y368796D01*
X171638Y368816D01*
X171687Y368836D01*
X171739Y368852D01*
X171795Y368868D01*
X171857Y368882D01*
X171923Y368891D01*
X171916Y368895D01*
X171900Y368901D01*
X171877Y368914D01*
X171847Y368931D01*
X171782Y368973D01*
X171752Y368996D01*
X171723Y369019D01*
X171720D01*
X171716Y369026D01*
X171697Y369042D01*
X171670Y369072D01*
X171631Y369111D01*
X171588Y369157D01*
X171543Y369216D01*
X171493Y369282D01*
X171444Y369354D01*
X171008Y370036D01*
X171428D01*
X171759Y369515D01*
Y369511D01*
X171765Y369505D01*
X171772Y369492D01*
X171782Y369479D01*
X171795Y369459D01*
X171811Y369436D01*
X171844Y369387D01*
X171884Y369331D01*
X171923Y369275D01*
X171962Y369219D01*
X172002Y369170D01*
X172005Y369164D01*
X172018Y369150D01*
X172035Y369128D01*
X172057Y369105D01*
X172084Y369075D01*
X172113Y369046D01*
X172143Y369023D01*
X172172Y369000D01*
X172176Y368996D01*
X172185Y368993D01*
X172198Y368983D01*
X172218Y368973D01*
X172241Y368960D01*
X172267Y368951D01*
X172323Y368931D01*
X172326D01*
X172333Y368928D01*
X172346D01*
X172366Y368924D01*
X172392Y368921D01*
X172425D01*
X172461Y368918D01*
X172894D01*
Y370036D01*
X173228D01*
Y367514D01*
D02*
G37*
G36*
X160971Y368209D02*
X160650D01*
X160358Y369265D01*
X160253Y369659D01*
Y369656D01*
X160249Y369649D01*
X160246Y369633D01*
X160243Y369616D01*
X160240Y369600D01*
X160233Y369580D01*
X160227Y369554D01*
X160220Y369524D01*
X160210Y369488D01*
X160200Y369446D01*
X160187Y369396D01*
X160174Y369344D01*
X160158Y369282D01*
X159869Y368209D01*
X159551D01*
X159275Y369272D01*
X159187Y369620D01*
X159082Y369265D01*
X158767Y368209D01*
X158465D01*
X159039Y370036D01*
X159357D01*
X159649Y368944D01*
X159721Y368632D01*
X160092Y370036D01*
X160417D01*
X160971Y368209D01*
D02*
G37*
G36*
X154677Y367514D02*
X154368D01*
Y368422D01*
X154365Y368419D01*
X154359Y368412D01*
X154345Y368399D01*
X154329Y368383D01*
X154309Y368363D01*
X154283Y368344D01*
X154254Y368321D01*
X154221Y368295D01*
X154181Y368271D01*
X154142Y368249D01*
X154096Y368229D01*
X154050Y368209D01*
X153998Y368193D01*
X153942Y368180D01*
X153883Y368173D01*
X153824Y368170D01*
X153791D01*
X153752Y368173D01*
X153706Y368180D01*
X153650Y368190D01*
X153594Y368206D01*
X153532Y368226D01*
X153476Y368252D01*
X153473D01*
X153470Y368255D01*
X153450Y368265D01*
X153424Y368285D01*
X153391Y368308D01*
X153358Y368340D01*
X153322Y368376D01*
X153289Y368422D01*
X153260Y368472D01*
X153256Y368478D01*
X153250Y368498D01*
X153240Y368531D01*
X153227Y368577D01*
X153214Y368632D01*
X153204Y368704D01*
X153197Y368787D01*
X153194Y368882D01*
Y370036D01*
X153503D01*
Y368882D01*
Y368878D01*
Y368872D01*
Y368859D01*
Y368842D01*
X153506Y368826D01*
X153509Y368803D01*
X153516Y368750D01*
X153529Y368698D01*
X153545Y368642D01*
X153571Y368590D01*
X153604Y368544D01*
X153607Y368541D01*
X153624Y368527D01*
X153647Y368511D01*
X153676Y368488D01*
X153719Y368468D01*
X153768Y368452D01*
X153824Y368439D01*
X153890Y368436D01*
X153912D01*
X153939Y368439D01*
X153972Y368445D01*
X154011Y368452D01*
X154053Y368465D01*
X154099Y368485D01*
X154145Y368508D01*
X154152Y368511D01*
X154165Y368521D01*
X154188Y368537D01*
X154211Y368560D01*
X154241Y368586D01*
X154270Y368619D01*
X154296Y368658D01*
X154319Y368701D01*
X154323Y368708D01*
X154326Y368724D01*
X154336Y368750D01*
X154342Y368790D01*
X154352Y368836D01*
X154362Y368895D01*
X154365Y368964D01*
X154368Y369039D01*
Y370036D01*
X154677D01*
Y367514D01*
D02*
G37*
G36*
X155739Y370072D02*
X155766D01*
X155798Y370069D01*
X155835Y370062D01*
X155874Y370056D01*
X155920Y370046D01*
X155966Y370033D01*
X156015Y370016D01*
X156064Y369997D01*
X156113Y369974D01*
X156163Y369944D01*
X156212Y369912D01*
X156261Y369875D01*
X156304Y369833D01*
X156307Y369830D01*
X156313Y369820D01*
X156323Y369807D01*
X156340Y369787D01*
X156356Y369761D01*
X156376Y369731D01*
X156395Y369695D01*
X156415Y369652D01*
X156438Y369606D01*
X156458Y369554D01*
X156477Y369495D01*
X156494Y369433D01*
X156510Y369364D01*
X156520Y369292D01*
X156527Y369213D01*
X156530Y369131D01*
Y369128D01*
Y369118D01*
Y369101D01*
Y369082D01*
X156527Y369055D01*
X156523Y369026D01*
Y368993D01*
X156517Y368957D01*
X156507Y368875D01*
X156491Y368790D01*
X156468Y368701D01*
X156435Y368616D01*
Y368613D01*
X156431Y368606D01*
X156425Y368593D01*
X156415Y368580D01*
X156392Y368541D01*
X156359Y368491D01*
X156320Y368436D01*
X156267Y368380D01*
X156205Y368327D01*
X156136Y368281D01*
X156133D01*
X156126Y368278D01*
X156117Y368271D01*
X156100Y368265D01*
X156084Y368255D01*
X156061Y368245D01*
X156005Y368226D01*
X155943Y368206D01*
X155867Y368186D01*
X155785Y368173D01*
X155700Y368170D01*
X155671D01*
X155651Y368173D01*
X155625D01*
X155595Y368176D01*
X155566Y368183D01*
X155529Y368190D01*
X155454Y368206D01*
X155372Y368232D01*
X155293Y368271D01*
X155254Y368295D01*
X155218Y368321D01*
X155215Y368324D01*
X155208Y368327D01*
X155201Y368337D01*
X155188Y368347D01*
X155172Y368363D01*
X155156Y368383D01*
X155136Y368406D01*
X155116Y368429D01*
X155074Y368491D01*
X155034Y368563D01*
X154998Y368649D01*
X154972Y368747D01*
X155274Y368793D01*
Y368790D01*
X155277Y368787D01*
Y368777D01*
X155283Y368763D01*
X155293Y368731D01*
X155310Y368691D01*
X155333Y368649D01*
X155359Y368603D01*
X155388Y368560D01*
X155428Y368521D01*
X155431Y368517D01*
X155447Y368504D01*
X155471Y368491D01*
X155500Y368472D01*
X155539Y368455D01*
X155585Y368439D01*
X155634Y368429D01*
X155690Y368426D01*
X155713D01*
X155730Y368429D01*
X155749Y368432D01*
X155772Y368436D01*
X155825Y368445D01*
X155884Y368465D01*
X155946Y368495D01*
X155979Y368514D01*
X156008Y368537D01*
X156038Y368563D01*
X156067Y368593D01*
Y368596D01*
X156074Y368600D01*
X156081Y368609D01*
X156090Y368626D01*
X156100Y368642D01*
X156113Y368665D01*
X156126Y368691D01*
X156140Y368721D01*
X156153Y368757D01*
X156166Y368796D01*
X156179Y368839D01*
X156189Y368885D01*
X156199Y368937D01*
X156205Y368993D01*
X156209Y369055D01*
X156212Y369121D01*
Y369124D01*
Y369137D01*
Y369157D01*
X156209Y369180D01*
Y369213D01*
X156205Y369246D01*
X156199Y369285D01*
X156195Y369324D01*
X156179Y369413D01*
X156153Y369501D01*
X156120Y369584D01*
X156097Y369623D01*
X156074Y369656D01*
X156071Y369659D01*
X156067Y369662D01*
X156048Y369682D01*
X156018Y369708D01*
X155976Y369738D01*
X155923Y369767D01*
X155861Y369793D01*
X155789Y369813D01*
X155749Y369816D01*
X155707Y369820D01*
X155690D01*
X155677Y369816D01*
X155644Y369813D01*
X155602Y369807D01*
X155552Y369793D01*
X155503Y369774D01*
X155454Y369747D01*
X155405Y369711D01*
X155398Y369705D01*
X155385Y369692D01*
X155362Y369662D01*
X155339Y369626D01*
X155313Y369577D01*
X155287Y369518D01*
X155264Y369449D01*
X155247Y369367D01*
X154942Y369410D01*
Y369413D01*
X154946Y369423D01*
X154949Y369439D01*
X154952Y369462D01*
X154962Y369488D01*
X154969Y369518D01*
X154982Y369554D01*
X154995Y369590D01*
X155028Y369669D01*
X155074Y369751D01*
X155100Y369790D01*
X155129Y369830D01*
X155165Y369866D01*
X155201Y369902D01*
X155205Y369905D01*
X155211Y369908D01*
X155221Y369918D01*
X155238Y369928D01*
X155257Y369941D01*
X155280Y369957D01*
X155310Y369974D01*
X155339Y369987D01*
X155375Y370003D01*
X155415Y370020D01*
X155500Y370049D01*
X155595Y370069D01*
X155648Y370072D01*
X155703Y370075D01*
X155720D01*
X155739Y370072D01*
D02*
G37*
G36*
X158199Y368209D02*
X157891D01*
Y370036D01*
X158199D01*
Y368209D01*
D02*
G37*
G36*
X170001Y370072D02*
X170027D01*
X170060Y370069D01*
X170099Y370062D01*
X170145Y370056D01*
X170191Y370046D01*
X170240Y370033D01*
X170293Y370016D01*
X170345Y369997D01*
X170398Y369970D01*
X170450Y369944D01*
X170503Y369912D01*
X170552Y369872D01*
X170598Y369830D01*
X170601Y369826D01*
X170608Y369816D01*
X170621Y369803D01*
X170634Y369784D01*
X170650Y369757D01*
X170670Y369728D01*
X170693Y369692D01*
X170713Y369652D01*
X170736Y369603D01*
X170759Y369554D01*
X170778Y369495D01*
X170795Y369436D01*
X170808Y369367D01*
X170821Y369298D01*
X170827Y369223D01*
X170831Y369141D01*
Y369134D01*
Y369121D01*
X170827Y369095D01*
Y369065D01*
X170824Y369026D01*
X170818Y368980D01*
X170811Y368931D01*
X170801Y368878D01*
X170788Y368823D01*
X170772Y368763D01*
X170755Y368704D01*
X170732Y368645D01*
X170703Y368586D01*
X170673Y368527D01*
X170637Y368475D01*
X170595Y368426D01*
X170591Y368422D01*
X170585Y368416D01*
X170572Y368403D01*
X170552Y368386D01*
X170529Y368367D01*
X170499Y368344D01*
X170467Y368321D01*
X170431Y368298D01*
X170388Y368275D01*
X170342Y368252D01*
X170290Y368229D01*
X170237Y368209D01*
X170178Y368193D01*
X170116Y368180D01*
X170050Y368173D01*
X169981Y368170D01*
X169945D01*
X169919Y368173D01*
X169889Y368176D01*
X169853Y368183D01*
X169811Y368190D01*
X169768Y368199D01*
X169722Y368212D01*
X169673Y368232D01*
X169624Y368252D01*
X169574Y368275D01*
X169522Y368304D01*
X169473Y368337D01*
X169427Y368376D01*
X169381Y368419D01*
X169378Y368422D01*
X169371Y368432D01*
X169358Y368445D01*
X169345Y368465D01*
X169328Y368491D01*
X169309Y368521D01*
X169286Y368557D01*
X169263Y368600D01*
X169243Y368649D01*
X169220Y368701D01*
X169201Y368757D01*
X169184Y368819D01*
X169171Y368888D01*
X169158Y368960D01*
X169151Y369039D01*
X169148Y369121D01*
Y369128D01*
Y369141D01*
Y369167D01*
X169151Y369203D01*
X170513D01*
Y369206D01*
Y369216D01*
X170509Y369233D01*
X170506Y369252D01*
X170503Y369279D01*
X170499Y369308D01*
X170486Y369374D01*
X170463Y369449D01*
X170434Y369524D01*
X170395Y369597D01*
X170371Y369629D01*
X170345Y369662D01*
X170342Y369666D01*
X170339Y369669D01*
X170329Y369675D01*
X170319Y369685D01*
X170283Y369711D01*
X170240Y369741D01*
X170185Y369770D01*
X170119Y369793D01*
X170044Y369813D01*
X170004Y369816D01*
X169962Y369820D01*
X169932D01*
X169903Y369816D01*
X169860Y369810D01*
X169817Y369797D01*
X169768Y369784D01*
X169719Y369761D01*
X169673Y369731D01*
X169666Y369728D01*
X169653Y369715D01*
X169630Y369692D01*
X169604Y369662D01*
X169574Y369623D01*
X169542Y369570D01*
X169509Y369511D01*
X169483Y369443D01*
X169161Y369485D01*
Y369488D01*
X169165Y369498D01*
X169168Y369511D01*
X169178Y369531D01*
X169184Y369554D01*
X169197Y369584D01*
X169223Y369646D01*
X169263Y369715D01*
X169312Y369787D01*
X169371Y369859D01*
X169440Y369921D01*
X169443D01*
X169450Y369928D01*
X169460Y369935D01*
X169476Y369944D01*
X169496Y369957D01*
X169522Y369970D01*
X169548Y369984D01*
X169581Y369997D01*
X169617Y370013D01*
X169657Y370026D01*
X169699Y370039D01*
X169745Y370053D01*
X169847Y370069D01*
X169903Y370072D01*
X169962Y370075D01*
X169978D01*
X170001Y370072D01*
D02*
G37*
G36*
X166281D02*
X166308D01*
X166340Y370069D01*
X166380Y370062D01*
X166426Y370056D01*
X166472Y370046D01*
X166521Y370033D01*
X166573Y370016D01*
X166626Y369997D01*
X166678Y369970D01*
X166731Y369944D01*
X166783Y369912D01*
X166832Y369872D01*
X166878Y369830D01*
X166882Y369826D01*
X166888Y369816D01*
X166901Y369803D01*
X166914Y369784D01*
X166931Y369757D01*
X166951Y369728D01*
X166973Y369692D01*
X166993Y369652D01*
X167016Y369603D01*
X167039Y369554D01*
X167059Y369495D01*
X167075Y369436D01*
X167088Y369367D01*
X167101Y369298D01*
X167108Y369223D01*
X167111Y369141D01*
Y369134D01*
Y369121D01*
X167108Y369095D01*
Y369065D01*
X167105Y369026D01*
X167098Y368980D01*
X167092Y368931D01*
X167082Y368878D01*
X167069Y368823D01*
X167052Y368763D01*
X167036Y368704D01*
X167013Y368645D01*
X166983Y368586D01*
X166954Y368527D01*
X166918Y368475D01*
X166875Y368426D01*
X166872Y368422D01*
X166865Y368416D01*
X166852Y368403D01*
X166832Y368386D01*
X166809Y368367D01*
X166780Y368344D01*
X166747Y368321D01*
X166711Y368298D01*
X166668Y368275D01*
X166622Y368252D01*
X166570Y368229D01*
X166517Y368209D01*
X166458Y368193D01*
X166396Y368180D01*
X166331Y368173D01*
X166262Y368170D01*
X166226D01*
X166199Y368173D01*
X166170Y368176D01*
X166134Y368183D01*
X166091Y368190D01*
X166049Y368199D01*
X166003Y368212D01*
X165953Y368232D01*
X165904Y368252D01*
X165855Y368275D01*
X165803Y368304D01*
X165753Y368337D01*
X165707Y368376D01*
X165661Y368419D01*
X165658Y368422D01*
X165652Y368432D01*
X165638Y368445D01*
X165625Y368465D01*
X165609Y368491D01*
X165589Y368521D01*
X165566Y368557D01*
X165543Y368600D01*
X165524Y368649D01*
X165501Y368701D01*
X165481Y368757D01*
X165465Y368819D01*
X165452Y368888D01*
X165438Y368960D01*
X165432Y369039D01*
X165429Y369121D01*
Y369128D01*
Y369141D01*
Y369167D01*
X165432Y369203D01*
X166793D01*
Y369206D01*
Y369216D01*
X166790Y369233D01*
X166787Y369252D01*
X166783Y369279D01*
X166780Y369308D01*
X166767Y369374D01*
X166744Y369449D01*
X166714Y369524D01*
X166675Y369597D01*
X166652Y369629D01*
X166626Y369662D01*
X166622Y369666D01*
X166619Y369669D01*
X166609Y369675D01*
X166600Y369685D01*
X166563Y369711D01*
X166521Y369741D01*
X166465Y369770D01*
X166399Y369793D01*
X166324Y369813D01*
X166285Y369816D01*
X166242Y369820D01*
X166212D01*
X166183Y369816D01*
X166140Y369810D01*
X166098Y369797D01*
X166049Y369784D01*
X165999Y369761D01*
X165953Y369731D01*
X165947Y369728D01*
X165934Y369715D01*
X165911Y369692D01*
X165884Y369662D01*
X165855Y369623D01*
X165822Y369570D01*
X165789Y369511D01*
X165763Y369443D01*
X165442Y369485D01*
Y369488D01*
X165445Y369498D01*
X165448Y369511D01*
X165458Y369531D01*
X165465Y369554D01*
X165478Y369584D01*
X165504Y369646D01*
X165543Y369715D01*
X165593Y369787D01*
X165652Y369859D01*
X165720Y369921D01*
X165724D01*
X165730Y369928D01*
X165740Y369935D01*
X165757Y369944D01*
X165776Y369957D01*
X165803Y369970D01*
X165829Y369984D01*
X165861Y369997D01*
X165898Y370013D01*
X165937Y370026D01*
X165980Y370039D01*
X166025Y370053D01*
X166127Y370069D01*
X166183Y370072D01*
X166242Y370075D01*
X166258D01*
X166281Y370072D01*
D02*
G37*
G36*
X164628Y370056D02*
X164664Y370053D01*
X164707Y370046D01*
X164750Y370036D01*
X164792Y370023D01*
X164828Y370007D01*
X164832Y370003D01*
X164845Y369997D01*
X164858Y369987D01*
X164877Y369970D01*
X164901Y369951D01*
X164923Y369925D01*
X164943Y369898D01*
X164960Y369869D01*
Y369866D01*
X164966Y369849D01*
X164969Y369826D01*
X164976Y369790D01*
X164979Y369767D01*
X164982Y369741D01*
X164986Y369711D01*
X164989Y369675D01*
X164992Y369639D01*
Y369597D01*
X164996Y369551D01*
Y369501D01*
Y368449D01*
X165225D01*
Y368209D01*
X164996D01*
Y367760D01*
X164687Y367573D01*
Y368209D01*
X164376D01*
Y368449D01*
X164687D01*
Y369518D01*
Y369524D01*
Y369541D01*
Y369564D01*
X164684Y369590D01*
Y369620D01*
X164681Y369649D01*
X164677Y369672D01*
X164674Y369692D01*
X164671Y369698D01*
X164661Y369711D01*
X164645Y369731D01*
X164622Y369751D01*
X164618D01*
X164615Y369754D01*
X164605Y369757D01*
X164592Y369761D01*
X164559Y369767D01*
X164513Y369770D01*
X164477D01*
X164458Y369767D01*
X164431D01*
X164405Y369764D01*
X164376Y369761D01*
X164333Y370033D01*
X164340D01*
X164356Y370036D01*
X164379Y370039D01*
X164412Y370046D01*
X164448Y370049D01*
X164487Y370056D01*
X164569Y370059D01*
X164595D01*
X164628Y370056D01*
D02*
G37*
G36*
X156996D02*
X157032Y370053D01*
X157074Y370046D01*
X157117Y370036D01*
X157160Y370023D01*
X157196Y370007D01*
X157199Y370003D01*
X157212Y369997D01*
X157225Y369987D01*
X157245Y369970D01*
X157268Y369951D01*
X157291Y369925D01*
X157311Y369898D01*
X157327Y369869D01*
Y369866D01*
X157334Y369849D01*
X157337Y369826D01*
X157343Y369790D01*
X157347Y369767D01*
X157350Y369741D01*
X157353Y369711D01*
X157357Y369675D01*
X157360Y369639D01*
Y369597D01*
X157363Y369551D01*
Y369501D01*
Y368449D01*
X157593D01*
Y368209D01*
X157363D01*
Y367760D01*
X157055Y367573D01*
Y368209D01*
X156743D01*
Y368449D01*
X157055D01*
Y369518D01*
Y369524D01*
Y369541D01*
Y369564D01*
X157051Y369590D01*
Y369620D01*
X157048Y369649D01*
X157045Y369672D01*
X157042Y369692D01*
X157038Y369698D01*
X157028Y369711D01*
X157012Y369731D01*
X156989Y369751D01*
X156986D01*
X156983Y369754D01*
X156973Y369757D01*
X156960Y369761D01*
X156927Y369767D01*
X156881Y369770D01*
X156845D01*
X156825Y369767D01*
X156799D01*
X156773Y369764D01*
X156743Y369761D01*
X156701Y370033D01*
X156707D01*
X156723Y370036D01*
X156746Y370039D01*
X156779Y370046D01*
X156815Y370049D01*
X156855Y370056D01*
X156937Y370059D01*
X156963D01*
X156996Y370056D01*
D02*
G37*
G36*
X158199Y367514D02*
X157891D01*
Y367868D01*
X158199D01*
Y367514D01*
D02*
G37*
G36*
X354331Y375056D02*
X353996D01*
Y376306D01*
X352743Y375056D01*
X352291D01*
X353350Y376083D01*
X352245Y377579D01*
X352688D01*
X353586Y376309D01*
X353996Y376706D01*
Y377579D01*
X354331D01*
Y375056D01*
D02*
G37*
G36*
X351238Y375607D02*
X351244Y375611D01*
X351257Y375624D01*
X351284Y375647D01*
X351316Y375673D01*
X351359Y375706D01*
X351412Y375742D01*
X351467Y375781D01*
X351533Y375821D01*
X351536D01*
X351539Y375824D01*
X351549Y375831D01*
X351562Y375837D01*
X351599Y375857D01*
X351641Y375880D01*
X351690Y375906D01*
X351746Y375932D01*
X351802Y375958D01*
X351858Y375981D01*
Y375680D01*
X351854D01*
X351845Y375673D01*
X351831Y375666D01*
X351815Y375657D01*
X351792Y375647D01*
X351766Y375630D01*
X351704Y375598D01*
X351635Y375555D01*
X351556Y375502D01*
X351480Y375447D01*
X351405Y375384D01*
X351402Y375381D01*
X351395Y375378D01*
X351385Y375368D01*
X351372Y375355D01*
X351339Y375322D01*
X351297Y375276D01*
X351254Y375227D01*
X351208Y375168D01*
X351166Y375109D01*
X351130Y375047D01*
X350929D01*
Y377579D01*
X351238D01*
Y375607D01*
D02*
G37*
%LPC*%
G36*
X172894Y368629D02*
X172123D01*
X172100Y368626D01*
X172048Y368622D01*
X171992Y368619D01*
X171930Y368609D01*
X171874Y368600D01*
X171821Y368583D01*
X171815Y368580D01*
X171798Y368573D01*
X171775Y368563D01*
X171746Y368547D01*
X171716Y368527D01*
X171684Y368501D01*
X171651Y368468D01*
X171625Y368432D01*
X171621Y368429D01*
X171615Y368412D01*
X171601Y368393D01*
X171588Y368363D01*
X171579Y368331D01*
X171565Y368291D01*
X171559Y368252D01*
X171556Y368206D01*
Y368203D01*
Y368199D01*
Y368190D01*
X171559Y368176D01*
X171562Y368144D01*
X171572Y368101D01*
X171588Y368055D01*
X171611Y368006D01*
X171644Y367957D01*
X171687Y367911D01*
X171693Y367904D01*
X171713Y367891D01*
X171743Y367875D01*
X171789Y367852D01*
X171815Y367842D01*
X171844Y367829D01*
X171877Y367819D01*
X171916Y367812D01*
X171956Y367802D01*
X171998Y367799D01*
X172048Y367793D01*
X172894D01*
Y368629D01*
D02*
G37*
G36*
X170496Y368947D02*
X169476D01*
Y368944D01*
Y368937D01*
X169479Y368924D01*
X169483Y368911D01*
Y368891D01*
X169489Y368868D01*
X169499Y368819D01*
X169515Y368763D01*
X169535Y368708D01*
X169561Y368652D01*
X169594Y368606D01*
Y368603D01*
X169601Y368600D01*
X169611Y368590D01*
X169620Y368577D01*
X169653Y368550D01*
X169696Y368514D01*
X169752Y368481D01*
X169817Y368455D01*
X169893Y368432D01*
X169935Y368429D01*
X169978Y368426D01*
X169998D01*
X170014Y368429D01*
X170030D01*
X170053Y368432D01*
X170103Y368442D01*
X170158Y368462D01*
X170221Y368488D01*
X170280Y368521D01*
X170309Y368544D01*
X170339Y368570D01*
X170345Y368577D01*
X170362Y368596D01*
X170385Y368626D01*
X170411Y368668D01*
X170440Y368724D01*
X170467Y368790D01*
X170486Y368862D01*
X170496Y368947D01*
D02*
G37*
G36*
X166777D02*
X165757D01*
Y368944D01*
Y368937D01*
X165760Y368924D01*
X165763Y368911D01*
Y368891D01*
X165770Y368868D01*
X165779Y368819D01*
X165796Y368763D01*
X165816Y368708D01*
X165842Y368652D01*
X165875Y368606D01*
Y368603D01*
X165881Y368600D01*
X165891Y368590D01*
X165901Y368577D01*
X165934Y368550D01*
X165976Y368514D01*
X166032Y368481D01*
X166098Y368455D01*
X166173Y368432D01*
X166216Y368429D01*
X166258Y368426D01*
X166278D01*
X166295Y368429D01*
X166311D01*
X166334Y368432D01*
X166383Y368442D01*
X166439Y368462D01*
X166501Y368488D01*
X166560Y368521D01*
X166590Y368544D01*
X166619Y368570D01*
X166626Y368577D01*
X166642Y368596D01*
X166665Y368626D01*
X166691Y368668D01*
X166721Y368724D01*
X166747Y368790D01*
X166767Y368862D01*
X166777Y368947D01*
D02*
G37*
%LPD*%
D11*
X160433Y347638D02*
X186024D01*
X160433D02*
Y392520D01*
X186024D01*
Y347638D02*
Y392520D01*
X429724Y275689D02*
Y479469D01*
X278937D02*
X429724D01*
X278937Y275689D02*
Y479469D01*
Y275689D02*
X429724D01*
M02*
