G04*
G04 #@! TF.GenerationSoftware,Altium Limited,Altium Designer,20.1.8 (145)*
G04*
G04 Layer_Physical_Order=1*
G04 Layer_Color=255*
%FSLAX25Y25*%
%MOIN*%
G70*
G04*
G04 #@! TF.SameCoordinates,3D76E3EC-FEB2-46C7-AB75-6B0F0163D353*
G04*
G04*
G04 #@! TF.FilePolarity,Positive*
G04*
G01*
G75*
%ADD13C,0.01000*%
%ADD14R,0.05433X0.08268*%
%ADD19C,0.11535*%
%ADD20R,0.11535X0.11535*%
G04:AMPARAMS|DCode=21|XSize=155.9mil|YSize=179.92mil|CornerRadius=77.95mil|HoleSize=0mil|Usage=FLASHONLY|Rotation=180.000|XOffset=0mil|YOffset=0mil|HoleType=Round|Shape=RoundedRectangle|*
%AMROUNDEDRECTD21*
21,1,0.15590,0.02402,0,0,180.0*
21,1,0.00000,0.17992,0,0,180.0*
1,1,0.15590,0.00000,0.01201*
1,1,0.15590,0.00000,0.01201*
1,1,0.15590,0.00000,-0.01201*
1,1,0.15590,0.00000,-0.01201*
%
%ADD21ROUNDEDRECTD21*%
%ADD24R,0.07677X0.07677*%
%ADD25C,0.07677*%
%ADD26R,0.07677X0.07677*%
%ADD27C,0.06000*%
%ADD28R,0.06201X0.06201*%
%ADD29C,0.06201*%
D13*
X89100Y419809D02*
X94488Y425197D01*
X89100Y332160D02*
Y419809D01*
Y332160D02*
X94488Y326772D01*
X390800Y409639D02*
X398091Y416929D01*
X390800Y361621D02*
Y409639D01*
Y361621D02*
X398091Y354331D01*
X188150Y346063D02*
X236220D01*
X182047Y352165D02*
X188150Y346063D01*
X100197Y352165D02*
X164370D01*
X94488Y346457D02*
X100197Y352165D01*
X303300Y339790D02*
X310571Y332520D01*
X303300Y339790D02*
Y409658D01*
X310571Y416929D01*
X182047Y352165D02*
Y387992D01*
X164409Y370039D02*
Y387992D01*
X164370Y370000D02*
X164409Y370039D01*
X164370Y352165D02*
Y370000D01*
X79740Y268717D02*
Y274715D01*
X83739Y268717D01*
Y274715D01*
X89737D02*
X85738D01*
Y268717D01*
X89737D01*
X85738Y271716D02*
X87738D01*
X91736Y274715D02*
Y269716D01*
X92736Y268717D01*
X94735D01*
X95735Y269716D01*
Y274715D01*
X101733D02*
X97734D01*
Y271716D01*
X99734D01*
X97734D01*
Y268717D01*
X107731Y273715D02*
X106731Y274715D01*
X104732D01*
X103732Y273715D01*
Y272715D01*
X104732Y271716D01*
X106731D01*
X107731Y270716D01*
Y269716D01*
X106731Y268717D01*
X104732D01*
X103732Y269716D01*
X109731Y268717D02*
Y272715D01*
X111730Y274715D01*
X113729Y272715D01*
Y268717D01*
Y271716D01*
X109731D01*
X119727Y274715D02*
X115728D01*
Y268717D01*
X119727D01*
X115728Y271716D02*
X117728D01*
X79740Y284465D02*
Y290463D01*
X82739D01*
X83739Y289463D01*
Y287464D01*
X82739Y286464D01*
X79740D01*
X81739D02*
X83739Y284465D01*
X88737D02*
X86738D01*
X85738Y285464D01*
Y287464D01*
X86738Y288463D01*
X88737D01*
X89737Y287464D01*
Y286464D01*
X85738D01*
X91736Y288463D02*
X93736Y284465D01*
X95735Y288463D01*
X97734Y284465D02*
Y285464D01*
X98734D01*
Y284465D01*
X97734D01*
X108731D02*
X110730D01*
X109731D01*
Y290463D01*
X108731Y289463D01*
X79740Y276590D02*
Y282589D01*
X83739Y276590D01*
Y282589D01*
X85738Y276590D02*
X87738D01*
X86738D01*
Y280589D01*
X85738D01*
X94735D02*
X91736D01*
X90737Y279590D01*
Y277590D01*
X91736Y276590D01*
X94735D01*
X96735Y282589D02*
Y276590D01*
Y279590D01*
X97734Y280589D01*
X99734D01*
X100733Y279590D01*
Y276590D01*
X103732D02*
X105732D01*
X106731Y277590D01*
Y279590D01*
X105732Y280589D01*
X103732D01*
X102733Y279590D01*
Y277590D01*
X103732Y276590D01*
X108731D02*
X110730D01*
X109731D01*
Y282589D01*
X108731D01*
X114729Y280589D02*
X116728D01*
X117728Y279590D01*
Y276590D01*
X114729D01*
X113729Y277590D01*
X114729Y278590D01*
X117728D01*
X119727Y276590D02*
X122726D01*
X123726Y277590D01*
X122726Y278590D01*
X120727D01*
X119727Y279590D01*
X120727Y280589D01*
X123726D01*
X131723Y282589D02*
Y278590D01*
X133723Y276590D01*
X135722Y278590D01*
Y282589D01*
X140720Y276590D02*
X138721D01*
X137721Y277590D01*
Y279590D01*
X138721Y280589D01*
X140720D01*
X141720Y279590D01*
Y278590D01*
X137721D01*
X143719Y276590D02*
X145719D01*
X144719D01*
Y282589D01*
X143719D01*
X152717Y280589D02*
X149717D01*
X148718Y279590D01*
Y277590D01*
X149717Y276590D01*
X152717D01*
X157715D02*
X155716D01*
X154716Y277590D01*
Y279590D01*
X155716Y280589D01*
X157715D01*
X158715Y279590D01*
Y278590D01*
X154716D01*
X161714Y280589D02*
X163713D01*
X164713Y279590D01*
Y276590D01*
X161714D01*
X160714Y277590D01*
X161714Y278590D01*
X164713D01*
X79740Y300336D02*
Y294338D01*
X83739D01*
X86738Y298337D02*
X88737D01*
X89737Y297337D01*
Y294338D01*
X86738D01*
X85738Y295338D01*
X86738Y296337D01*
X89737D01*
X92736Y299336D02*
Y298337D01*
X91736D01*
X93736D01*
X92736D01*
Y295338D01*
X93736Y294338D01*
X100733Y298337D02*
X97734D01*
X96735Y297337D01*
Y295338D01*
X97734Y294338D01*
X100733D01*
X102733Y300336D02*
Y294338D01*
Y297337D01*
X103732Y298337D01*
X105732D01*
X106731Y297337D01*
Y294338D01*
X108731D02*
X110730D01*
X109731D01*
Y298337D01*
X108731D01*
X113729Y294338D02*
Y298337D01*
X116728D01*
X117728Y297337D01*
Y294338D01*
X121727Y292339D02*
X122726D01*
X123726Y293338D01*
Y298337D01*
X120727D01*
X119727Y297337D01*
Y295338D01*
X120727Y294338D01*
X123726D01*
X135722Y300336D02*
X131723D01*
Y297337D01*
X133723D01*
X131723D01*
Y294338D01*
X138721Y298337D02*
X140720D01*
X141720Y297337D01*
Y294338D01*
X138721D01*
X137721Y295338D01*
X138721Y296337D01*
X141720D01*
X143719Y298337D02*
Y295338D01*
X144719Y294338D01*
X147718D01*
Y298337D01*
X149717Y294338D02*
X151717D01*
X150717D01*
Y300336D01*
X149717D01*
X155716Y299336D02*
Y298337D01*
X154716D01*
X156715D01*
X155716D01*
Y295338D01*
X156715Y294338D01*
X165712Y300336D02*
Y294338D01*
X168711D01*
X169711Y295338D01*
Y296337D01*
X168711Y297337D01*
X165712D01*
X168711D01*
X169711Y298337D01*
Y299336D01*
X168711Y300336D01*
X165712D01*
X172710Y294338D02*
X174709D01*
X175709Y295338D01*
Y297337D01*
X174709Y298337D01*
X172710D01*
X171710Y297337D01*
Y295338D01*
X172710Y294338D01*
X178708Y298337D02*
X180708D01*
X181707Y297337D01*
Y294338D01*
X178708D01*
X177708Y295338D01*
X178708Y296337D01*
X181707D01*
X183706Y298337D02*
Y294338D01*
Y296337D01*
X184706Y297337D01*
X185706Y298337D01*
X186706D01*
X193703Y300336D02*
Y294338D01*
X190704D01*
X189705Y295338D01*
Y297337D01*
X190704Y298337D01*
X193703D01*
X201701Y297337D02*
X205699D01*
X213697Y294338D02*
Y298337D01*
X215696Y300336D01*
X217695Y298337D01*
Y294338D01*
Y297337D01*
X213697D01*
X223694Y298337D02*
X220695D01*
X219695Y297337D01*
Y295338D01*
X220695Y294338D01*
X223694D01*
X226693Y299336D02*
Y298337D01*
X225693D01*
X227692D01*
X226693D01*
Y295338D01*
X227692Y294338D01*
X230691D02*
X232691D01*
X231691D01*
Y298337D01*
X230691D01*
X235690D02*
X237689Y294338D01*
X239688Y298337D01*
X244687Y294338D02*
X242687D01*
X241688Y295338D01*
Y297337D01*
X242687Y298337D01*
X244687D01*
X245687Y297337D01*
Y296337D01*
X241688D01*
X253684Y300336D02*
Y294338D01*
Y297337D01*
X257683D01*
Y300336D01*
Y294338D01*
X259682D02*
X261681D01*
X260682D01*
Y298337D01*
X259682D01*
X266680Y292339D02*
X267679D01*
X268679Y293338D01*
Y298337D01*
X265680D01*
X264680Y297337D01*
Y295338D01*
X265680Y294338D01*
X268679D01*
X270678Y300336D02*
Y294338D01*
Y297337D01*
X271678Y298337D01*
X273677D01*
X274677Y297337D01*
Y294338D01*
D14*
X164370Y352165D02*
D03*
X164409Y387992D02*
D03*
X182047Y352165D02*
D03*
Y387992D02*
D03*
D19*
X310571Y416929D02*
D03*
X398091D02*
D03*
X310571Y387126D02*
D03*
X354331D02*
D03*
X398091D02*
D03*
X310571Y354331D02*
D03*
X354331D02*
D03*
X398091D02*
D03*
X310571Y332520D02*
D03*
X354331D02*
D03*
D20*
X398091D02*
D03*
D21*
Y461929D02*
D03*
X310571Y293228D02*
D03*
D24*
X208661Y480315D02*
D03*
D25*
X188976D02*
D03*
X94488Y425197D02*
D03*
Y405512D02*
D03*
Y385827D02*
D03*
Y366142D02*
D03*
Y346457D02*
D03*
D26*
Y326772D02*
D03*
D27*
X417323Y251969D02*
D03*
X86614D02*
D03*
X417323Y488189D02*
D03*
X86614D02*
D03*
D28*
X236220Y346063D02*
D03*
D29*
Y401575D02*
D03*
M02*
