G04*
G04 #@! TF.GenerationSoftware,Altium Limited,Altium Designer,20.0.10 (225)*
G04*
G04 Layer_Color=8388736*
%FSLAX24Y24*%
%MOIN*%
G70*
G01*
G75*
%ADD21R,0.2106X0.0965*%
%ADD22R,0.0728X0.0630*%
%ADD23R,0.0728X0.2067*%
%ADD24R,0.0759X0.0909*%
%ADD25R,0.0276X0.0531*%
%ADD26R,0.0295X0.0531*%
%ADD27R,0.0748X0.0492*%
%ADD28R,0.0453X0.0433*%
%ADD29C,0.0728*%
%ADD30C,0.0659*%
%ADD31C,0.2028*%
%ADD32C,0.1240*%
%ADD33C,0.1122*%
D21*
X61024Y24094D02*
D03*
Y21654D02*
D03*
D22*
X54283Y33974D02*
D03*
Y34974D02*
D03*
X50582Y33974D02*
D03*
Y34974D02*
D03*
D23*
X37677Y29921D02*
D03*
X39449D02*
D03*
D24*
X46269Y33958D02*
D03*
X44669D02*
D03*
D25*
X47235Y33061D02*
D03*
X48425Y33071D02*
D03*
D26*
X47825Y33051D02*
D03*
D27*
X47835Y34431D02*
D03*
D28*
X46457Y31220D02*
D03*
Y31772D02*
D03*
X47638Y31614D02*
D03*
Y32165D02*
D03*
X45276Y31220D02*
D03*
Y31772D02*
D03*
X44488Y31220D02*
D03*
Y31772D02*
D03*
D29*
X62205Y32283D02*
D03*
Y35827D02*
D03*
X60630Y33465D02*
D03*
X61811D02*
D03*
X60630Y34646D02*
D03*
X61811D02*
D03*
D30*
X55709Y40551D02*
D03*
X64370D02*
D03*
X45276D02*
D03*
X53937D02*
D03*
X48425Y37402D02*
D03*
X45276D02*
D03*
X51181D02*
D03*
X54331D02*
D03*
X61417Y17717D02*
D03*
Y19685D02*
D03*
X54724Y18898D02*
D03*
Y21850D02*
D03*
X53543Y26772D02*
D03*
Y28740D02*
D03*
X59843Y26772D02*
D03*
Y28740D02*
D03*
D31*
X32283Y14567D02*
D03*
X64567D02*
D03*
Y43307D02*
D03*
D32*
X39370Y33504D02*
D03*
Y35433D02*
D03*
Y37402D02*
D03*
X34646Y33504D02*
D03*
Y35433D02*
D03*
Y37402D02*
D03*
D33*
X45276Y26929D02*
D03*
Y25748D02*
D03*
Y24567D02*
D03*
Y23386D02*
D03*
Y21220D02*
D03*
Y20039D02*
D03*
Y18858D02*
D03*
Y17677D02*
D03*
X36614Y26378D02*
D03*
Y24016D02*
D03*
Y21654D02*
D03*
Y20472D02*
D03*
Y19291D02*
D03*
Y18110D02*
D03*
M02*
