G04*
G04 #@! TF.GenerationSoftware,Altium Limited,Altium Designer,20.0.10 (225)*
G04*
G04 Layer_Physical_Order=1*
G04 Layer_Color=255*
%FSLAX24Y24*%
%MOIN*%
G70*
G01*
G75*
%ADD11C,0.0100*%
%ADD13R,0.2047X0.0906*%
%ADD14R,0.0669X0.0571*%
%ADD15R,0.0669X0.2008*%
%ADD16R,0.0700X0.0850*%
%ADD17R,0.0217X0.0472*%
%ADD18R,0.0236X0.0472*%
%ADD19R,0.0689X0.0433*%
%ADD20R,0.0394X0.0374*%
%ADD34C,0.0669*%
%ADD35C,0.0600*%
%ADD36C,0.1969*%
%ADD37C,0.1181*%
%ADD38C,0.1063*%
D11*
X48500Y38976D02*
X62795D01*
X44669Y35146D02*
X48500Y38976D01*
X44669Y33958D02*
Y35146D01*
Y35252D01*
X40945Y38976D02*
X44669Y35252D01*
X39164Y24597D02*
Y29637D01*
X36614Y21654D02*
X36798Y21838D01*
Y22232D02*
X39164Y24597D01*
X36798Y21838D02*
Y22232D01*
X62795Y38976D02*
X64370Y40551D01*
X45276Y37402D02*
X46063D01*
X49213Y40551D02*
X53937D01*
X46063Y37402D02*
X49213Y40551D01*
X38583Y38976D02*
X40945D01*
X37795Y38189D02*
X38583Y38976D01*
X37795Y30039D02*
Y38189D01*
X37677Y29921D02*
X37795Y30039D01*
X36614Y26378D02*
Y37795D01*
X38583Y39764D02*
X42913D01*
X36614Y37795D02*
X38583Y39764D01*
X42913D02*
X45276Y37402D01*
X40630Y29921D02*
X43179D01*
X38189Y40551D02*
X45276D01*
X34646Y37402D02*
X34853Y37608D01*
X35246D01*
X38189Y40551D01*
X34646Y35433D02*
Y37402D01*
Y33504D02*
Y35433D01*
X53346Y42913D02*
X55709Y40551D01*
X45276D02*
X47638Y42913D01*
X53346D01*
X53808Y38189D02*
X57480D01*
X53020Y37402D02*
X53808Y38189D01*
X57480D02*
X59843Y35827D01*
X45433Y26772D02*
X50787D01*
X59843Y17717D02*
X61417D01*
X50787Y26772D02*
X59843Y17717D01*
X53543Y35827D02*
X59843D01*
X48032Y30315D02*
X53543Y35827D01*
X59843D02*
X60085D01*
X61266Y34646D02*
X61811D01*
X37402Y16142D02*
X51968D01*
X35039Y23405D02*
X36614Y24980D01*
X35039Y18504D02*
X37402Y16142D01*
X35039Y18504D02*
Y23405D01*
X51181Y37402D02*
X53020D01*
X60085Y35827D02*
X61266Y34646D01*
X36614Y21654D02*
X38189D01*
X42913Y16929D01*
X46291D01*
X51212Y21850D01*
X54724D01*
X61304Y19685D02*
X61417D01*
X59055Y21934D02*
X61304Y19685D01*
X59055Y21934D02*
Y24374D01*
X51138Y34209D02*
X54331Y37402D01*
X50818Y34209D02*
X51138D01*
X50582Y33974D02*
X50818Y34209D01*
X46850Y30315D02*
X48032D01*
X48425Y37402D02*
X51181D01*
X45935Y32283D02*
X46447Y31772D01*
X44635Y31919D02*
X45000Y32283D01*
X45935D01*
X50533Y33974D02*
X50582D01*
X50298Y33738D02*
X50533Y33974D01*
X50298Y33368D02*
Y33738D01*
X49213Y32283D02*
X50298Y33368D01*
X49213Y32283D02*
Y32283D01*
X46575Y31102D02*
Y31248D01*
X46604Y31277D01*
X47897D01*
X48425Y31806D01*
Y33071D01*
X47638Y30709D02*
X49213Y32283D01*
X46373Y30709D02*
X47638D01*
X45276Y31220D02*
X45861D01*
X46373Y30709D01*
X46320Y31357D02*
X46575Y31102D01*
X39449Y29921D02*
X40630D01*
X43179D02*
X44478Y31220D01*
X44488D01*
X45276D01*
Y30315D02*
X46850D01*
X46850Y30315D01*
X39370Y30000D02*
Y33504D01*
Y30000D02*
X39449Y29921D01*
X39370Y33504D02*
Y35433D01*
Y37402D01*
X39164Y29637D02*
X39449Y29921D01*
X36614Y24980D02*
Y26378D01*
X59055Y24374D02*
X60595Y22835D01*
X59055Y25984D02*
X59843Y26772D01*
X59055Y24374D02*
Y25984D01*
X51968Y16142D02*
X54724Y18898D01*
X44094Y29134D02*
X45276Y30315D01*
X44094Y24567D02*
Y29134D01*
X44594Y26430D02*
X45276Y25748D01*
X44594Y26430D02*
Y27211D01*
X46517Y29134D02*
X53150D01*
X44094Y24567D02*
X45276Y23386D01*
X44594Y27211D02*
X46517Y29134D01*
X45276Y26929D02*
X45433Y26772D01*
X53543Y28740D02*
X59843D01*
X53150Y29134D02*
X53543Y28740D01*
X45276Y24567D02*
Y25748D01*
Y21220D02*
Y23386D01*
Y18858D02*
Y20039D01*
Y21220D01*
X47638Y32165D02*
Y32745D01*
X46594Y31909D02*
X46798D01*
X47636Y32747D01*
X50517Y35039D02*
X50582Y34974D01*
X48425Y34252D02*
X49213Y35039D01*
X48425Y33627D02*
Y34252D01*
X49213Y35039D02*
X50517D01*
X62598Y23622D02*
Y30315D01*
X61811Y22835D02*
X62598Y23622D01*
X60595Y22835D02*
X61811D01*
X61361Y31552D02*
X62598Y30315D01*
X53543Y26772D02*
X59843D01*
X61361Y31552D02*
Y34196D01*
X61811Y34646D01*
X62992Y22441D02*
Y32283D01*
X61594Y21654D02*
X62205D01*
X62992Y22441D01*
X61024Y21654D02*
X61594D01*
X61811Y33465D02*
X62992Y32283D01*
X61417Y17717D02*
X62598Y18898D01*
Y20079D01*
X61594Y21654D02*
X61997Y21251D01*
Y20680D02*
X62598Y20079D01*
X61997Y20680D02*
Y21251D01*
X61024Y24094D02*
Y27559D01*
X59843Y28740D02*
X61024Y27559D01*
X54283Y33974D02*
X54332D01*
X54841Y33465D01*
X60630D01*
X54283Y34974D02*
X60302D01*
X60630Y34646D01*
X48093Y33296D02*
X48425Y33627D01*
X47177Y33239D02*
X47235Y33181D01*
Y33061D02*
Y33181D01*
X47057Y33239D02*
X47177D01*
X46713Y33583D02*
X47057Y33239D01*
X46569Y33583D02*
X46713D01*
X45384Y31772D02*
X45778D01*
X46192Y31357D01*
X46320D01*
X46447Y31772D02*
X46457D01*
X47636Y32747D02*
X47757Y32868D01*
X47775Y31751D02*
X47904D01*
X48093Y31941D02*
Y33296D01*
X47904Y31751D02*
X48093Y31941D01*
X47638Y31614D02*
X47775Y31751D01*
X46457Y31772D02*
X46594Y31909D01*
X44488Y31772D02*
X44498D01*
X44635Y31909D01*
Y31919D01*
X46269Y33883D02*
Y33958D01*
Y33883D02*
X46569Y33583D01*
D13*
X61024Y24094D02*
D03*
Y21654D02*
D03*
D14*
X54283Y33974D02*
D03*
Y34974D02*
D03*
X50582Y33974D02*
D03*
Y34974D02*
D03*
D15*
X37677Y29921D02*
D03*
X39449D02*
D03*
D16*
X46269Y33958D02*
D03*
X44669D02*
D03*
D17*
X47235Y33061D02*
D03*
X48425Y33071D02*
D03*
D18*
X47825Y33051D02*
D03*
D19*
X47835Y34431D02*
D03*
D20*
X46457Y31220D02*
D03*
Y31772D02*
D03*
X47638Y31614D02*
D03*
Y32165D02*
D03*
X45276Y31220D02*
D03*
Y31772D02*
D03*
X44488Y31220D02*
D03*
Y31772D02*
D03*
D34*
X62205Y32283D02*
D03*
Y35827D02*
D03*
X60630Y33465D02*
D03*
X61811D02*
D03*
X60630Y34646D02*
D03*
X61811D02*
D03*
D35*
X55709Y40551D02*
D03*
X64370D02*
D03*
X45276D02*
D03*
X53937D02*
D03*
X48425Y37402D02*
D03*
X45276D02*
D03*
X51181D02*
D03*
X54331D02*
D03*
X61417Y17717D02*
D03*
Y19685D02*
D03*
X54724Y18898D02*
D03*
Y21850D02*
D03*
X53543Y26772D02*
D03*
Y28740D02*
D03*
X59843Y26772D02*
D03*
Y28740D02*
D03*
D36*
X32283Y14567D02*
D03*
X64567D02*
D03*
Y43307D02*
D03*
D37*
X39370Y33504D02*
D03*
Y35433D02*
D03*
Y37402D02*
D03*
X34646Y33504D02*
D03*
Y35433D02*
D03*
Y37402D02*
D03*
D38*
X45276Y26929D02*
D03*
Y25748D02*
D03*
Y24567D02*
D03*
Y23386D02*
D03*
Y21220D02*
D03*
Y20039D02*
D03*
Y18858D02*
D03*
Y17677D02*
D03*
X36614Y26378D02*
D03*
Y24016D02*
D03*
Y21654D02*
D03*
Y20472D02*
D03*
Y19291D02*
D03*
Y18110D02*
D03*
M02*
