G04*
G04 #@! TF.GenerationSoftware,Altium Limited,Altium Designer,20.0.10 (225)*
G04*
G04 Layer_Physical_Order=2*
G04 Layer_Color=16711680*
%FSLAX24Y24*%
%MOIN*%
G70*
G01*
G75*
%ADD34C,0.0669*%
%ADD35C,0.0600*%
%ADD36C,0.1969*%
%ADD37C,0.1181*%
%ADD38C,0.1063*%
D34*
X62205Y32283D02*
D03*
Y35827D02*
D03*
X60630Y33465D02*
D03*
X61811D02*
D03*
X60630Y34646D02*
D03*
X61811D02*
D03*
D35*
X55709Y40551D02*
D03*
X64370D02*
D03*
X45276D02*
D03*
X53937D02*
D03*
X48425Y37402D02*
D03*
X45276D02*
D03*
X51181D02*
D03*
X54331D02*
D03*
X61417Y17717D02*
D03*
Y19685D02*
D03*
X54724Y18898D02*
D03*
Y21850D02*
D03*
X53543Y26772D02*
D03*
Y28740D02*
D03*
X59843Y26772D02*
D03*
Y28740D02*
D03*
D36*
X32283Y14567D02*
D03*
X64567D02*
D03*
Y43307D02*
D03*
D37*
X39370Y33504D02*
D03*
Y35433D02*
D03*
Y37402D02*
D03*
X34646Y33504D02*
D03*
Y35433D02*
D03*
Y37402D02*
D03*
D38*
X45276Y26929D02*
D03*
Y25748D02*
D03*
Y24567D02*
D03*
Y23386D02*
D03*
Y21220D02*
D03*
Y20039D02*
D03*
Y18858D02*
D03*
Y17677D02*
D03*
X36614Y26378D02*
D03*
Y24016D02*
D03*
Y21654D02*
D03*
Y20472D02*
D03*
Y19291D02*
D03*
Y18110D02*
D03*
M02*
