G04*
G04 #@! TF.GenerationSoftware,Altium Limited,Altium Designer,20.0.10 (225)*
G04*
G04 Layer_Color=2752767*
%FSLAX24Y24*%
%MOIN*%
G70*
G01*
G75*
%ADD40C,0.0020*%
%ADD41C,0.0027*%
D40*
X62125Y32203D02*
Y32363D01*
X62285D01*
Y32203D01*
X62125D01*
Y35747D02*
Y35907D01*
X62285D01*
Y35747D01*
X62125D01*
X55709Y40471D02*
X55629Y40631D01*
X55789D01*
X55709Y40471D01*
X64370D02*
X64290Y40631D01*
X64450D01*
X64370Y40471D01*
X45276D02*
X45196Y40631D01*
X45356D01*
X45276Y40471D01*
X53937D02*
X53857Y40631D01*
X54017D01*
X53937Y40471D01*
X48425Y37322D02*
X48345Y37482D01*
X48505D01*
X48425Y37322D01*
X45276D02*
X45196Y37482D01*
X45356D01*
X45276Y37322D01*
X51181D02*
X51101Y37482D01*
X51261D01*
X51181Y37322D01*
X54331D02*
X54251Y37482D01*
X54411D01*
X54331Y37322D01*
X32283Y14487D02*
X32323Y14527D01*
X32363D01*
X32323Y14567D01*
X32363Y14607D01*
X32323D01*
X32283Y14647D01*
X32243Y14607D01*
X32203D01*
X32243Y14567D01*
X32203Y14527D01*
X32243D01*
X32283Y14487D01*
X64567D02*
X64607Y14527D01*
X64647D01*
X64607Y14567D01*
X64647Y14607D01*
X64607D01*
X64567Y14647D01*
X64527Y14607D01*
X64487D01*
X64527Y14567D01*
X64487Y14527D01*
X64527D01*
X64567Y14487D01*
Y43227D02*
X64607Y43267D01*
X64647D01*
X64607Y43307D01*
X64647Y43347D01*
X64607D01*
X64567Y43387D01*
X64527Y43347D01*
X64487D01*
X64527Y43307D01*
X64487Y43267D01*
X64527D01*
X64567Y43227D01*
X39290Y33424D02*
X39330Y33504D01*
X39290Y33584D01*
X39370Y33544D01*
X39450Y33584D01*
X39410Y33504D01*
X39450Y33424D01*
X39370Y33464D01*
X39290Y33424D01*
Y35353D02*
X39330Y35433D01*
X39290Y35513D01*
X39370Y35473D01*
X39450Y35513D01*
X39410Y35433D01*
X39450Y35353D01*
X39370Y35393D01*
X39290Y35353D01*
Y37322D02*
X39330Y37402D01*
X39290Y37482D01*
X39370Y37442D01*
X39450Y37482D01*
X39410Y37402D01*
X39450Y37322D01*
X39370Y37362D01*
X39290Y37322D01*
X34566Y33424D02*
X34606Y33504D01*
X34566Y33584D01*
X34646Y33544D01*
X34726Y33584D01*
X34686Y33504D01*
X34726Y33424D01*
X34646Y33464D01*
X34566Y33424D01*
Y35353D02*
X34606Y35433D01*
X34566Y35513D01*
X34646Y35473D01*
X34726Y35513D01*
X34686Y35433D01*
X34726Y35353D01*
X34646Y35393D01*
X34566Y35353D01*
Y37322D02*
X34606Y37402D01*
X34566Y37482D01*
X34646Y37442D01*
X34726Y37482D01*
X34686Y37402D01*
X34726Y37322D01*
X34646Y37362D01*
X34566Y37322D01*
X61417Y17637D02*
X61337Y17797D01*
X61497D01*
X61417Y17637D01*
Y19605D02*
X61337Y19765D01*
X61497D01*
X61417Y19605D01*
X45236Y26889D02*
Y26849D01*
X45316D01*
Y26889D01*
X45356D01*
Y26969D01*
X45316D01*
Y27009D01*
X45236D01*
Y26969D01*
X45196D01*
Y26889D01*
X45236D01*
Y25708D02*
Y25668D01*
X45316D01*
Y25708D01*
X45356D01*
Y25788D01*
X45316D01*
Y25828D01*
X45236D01*
Y25788D01*
X45196D01*
Y25708D01*
X45236D01*
Y24527D02*
Y24487D01*
X45316D01*
Y24527D01*
X45356D01*
Y24607D01*
X45316D01*
Y24647D01*
X45236D01*
Y24607D01*
X45196D01*
Y24527D01*
X45236D01*
Y23346D02*
Y23306D01*
X45316D01*
Y23346D01*
X45356D01*
Y23426D01*
X45316D01*
Y23466D01*
X45236D01*
Y23426D01*
X45196D01*
Y23346D01*
X45236D01*
Y21180D02*
Y21140D01*
X45316D01*
Y21180D01*
X45356D01*
Y21260D01*
X45316D01*
Y21300D01*
X45236D01*
Y21260D01*
X45196D01*
Y21180D01*
X45236D01*
Y19999D02*
Y19959D01*
X45316D01*
Y19999D01*
X45356D01*
Y20079D01*
X45316D01*
Y20119D01*
X45236D01*
Y20079D01*
X45196D01*
Y19999D01*
X45236D01*
Y18818D02*
Y18778D01*
X45316D01*
Y18818D01*
X45356D01*
Y18898D01*
X45316D01*
Y18938D01*
X45236D01*
Y18898D01*
X45196D01*
Y18818D01*
X45236D01*
Y17637D02*
Y17597D01*
X45316D01*
Y17637D01*
X45356D01*
Y17717D01*
X45316D01*
Y17757D01*
X45236D01*
Y17717D01*
X45196D01*
Y17637D01*
X45236D01*
X36574Y26338D02*
Y26298D01*
X36654D01*
Y26338D01*
X36694D01*
Y26418D01*
X36654D01*
Y26458D01*
X36574D01*
Y26418D01*
X36534D01*
Y26338D01*
X36574D01*
Y23976D02*
Y23936D01*
X36654D01*
Y23976D01*
X36694D01*
Y24056D01*
X36654D01*
Y24096D01*
X36574D01*
Y24056D01*
X36534D01*
Y23976D01*
X36574D01*
Y21614D02*
Y21574D01*
X36654D01*
Y21614D01*
X36694D01*
Y21694D01*
X36654D01*
Y21734D01*
X36574D01*
Y21694D01*
X36534D01*
Y21614D01*
X36574D01*
Y20432D02*
Y20392D01*
X36654D01*
Y20432D01*
X36694D01*
Y20512D01*
X36654D01*
Y20552D01*
X36574D01*
Y20512D01*
X36534D01*
Y20432D01*
X36574D01*
Y19251D02*
Y19211D01*
X36654D01*
Y19251D01*
X36694D01*
Y19331D01*
X36654D01*
Y19371D01*
X36574D01*
Y19331D01*
X36534D01*
Y19251D01*
X36574D01*
Y18070D02*
Y18030D01*
X36654D01*
Y18070D01*
X36694D01*
Y18150D01*
X36654D01*
Y18190D01*
X36574D01*
Y18150D01*
X36534D01*
Y18070D01*
X36574D01*
X54644Y18818D02*
X54684D01*
X54724Y18858D01*
X54764Y18818D01*
X54804D01*
Y18858D01*
X54764Y18898D01*
X54804Y18938D01*
Y18978D01*
X54764D01*
X54724Y18938D01*
X54684Y18978D01*
X54644D01*
Y18938D01*
X54684Y18898D01*
X54644Y18858D01*
Y18818D01*
Y21770D02*
X54684D01*
X54724Y21810D01*
X54764Y21770D01*
X54804D01*
Y21810D01*
X54764Y21850D01*
X54804Y21890D01*
Y21930D01*
X54764D01*
X54724Y21890D01*
X54684Y21930D01*
X54644D01*
Y21890D01*
X54684Y21850D01*
X54644Y21810D01*
Y21770D01*
X53543Y26692D02*
X53463Y26852D01*
X53623D01*
X53543Y26692D01*
Y28660D02*
X53463Y28820D01*
X53623D01*
X53543Y28660D01*
X59843Y26692D02*
X59763Y26852D01*
X59923D01*
X59843Y26692D01*
Y28660D02*
X59763Y28820D01*
X59923D01*
X59843Y28660D01*
D41*
X60710Y33465D02*
G03*
X60710Y33465I-80J0D01*
G01*
X61891D02*
G03*
X61891Y33465I-80J0D01*
G01*
X60710Y34646D02*
G03*
X60710Y34646I-80J0D01*
G01*
X61891D02*
G03*
X61891Y34646I-80J0D01*
G01*
M02*
