M48
;Layer_Color=9474304
;FILE_FORMAT=2:4
INCH,TZ
;TYPE=PLATED
T1F00S00C0.0300
T2F00S00C0.0374
T3F00S00C0.0472
T4F00S00C0.0591
T5F00S00C0.0925
;TYPE=NON_PLATED
T6F00S00C0.0472
T7F00S00C0.1575
%
T01
X61417Y17717
Y19685
X59843Y26772
Y28740
X53543
Y26772
X45276Y37402
Y40551
X48425Y37402
X51181
X54331
X53937Y40551
X55709
X64370
T02
X54724Y18898
Y21850
T03
X60630Y33465
X61811
Y34646
X60630
T04
X36614Y18110
Y19291
Y20472
Y21654
Y24016
Y26378
X45276Y26929
Y25748
Y24567
Y23386
Y21220
Y20039
Y18858
Y17677
T05
X34646Y33504
Y35433
Y37402
X39370
Y35433
Y33504
T06
X62205Y32283
Y35827
T07
X32283Y14567
X64567
Y43307
M30
