M48
;Layer_Color=9474304
;FILE_FORMAT=2:4
INCH,TZ
T8F00S00C0.2000
%
G90
G05
T08
G00X66340Y12012
M15
G01X66531Y12071
G01X66707Y12167
G01X66859Y12296
G01X66983Y12452
G01X67074Y12630
G01X67127Y12823
G01X67142Y12992
G01X67142Y44823
G01X67122Y45022
G01X67063Y45213
G01X66967Y45388
G01X66849Y45530
G01X66790Y45589
G01X66636Y45715
G01X66459Y45809
G01X66267Y45865
G01X66083Y45882
G01X30374Y45882
G01X30175Y45862
G01X29984Y45803
G01X29809Y45707
G01X29666Y45589
G01X29608Y45530
G01X29481Y45376
G01X29388Y45199
G01X29332Y45007
G01X29315Y44823
G01X29315Y12992
G01X29335Y12793
G01X29394Y12603
G01X29490Y12427
G01X29618Y12275
G01X29775Y12150
G01X29953Y12060
G01X30146Y12007
G01X30315Y11992
G01X66142Y11992
G01X66340Y12012
M16
M17
M30
